<svg width="45" height="38" viewBox="0 0 45 38" fill="none" xmlns="http://www.w3.org/2000/svg">
<rect x="1" y="1" width="42" height="36" rx="7" fill="#F1F3F5" stroke="#F1F3F5" stroke-width="2"/>
<path d="M27.8125 12.625H24.5312L24.2578 12.1328C24.1484 11.9141 23.9297 11.75 23.6836 11.75H20.5391C20.293 11.75 20.0742 11.9141 19.9648 12.1328L19.7188 12.625H16.4375C16.1914 12.625 16 12.8438 16 13.0625V13.9375C16 14.1836 16.1914 14.375 16.4375 14.375H27.8125C28.0312 14.375 28.25 14.1836 28.25 13.9375V13.0625C28.25 12.8438 28.0312 12.625 27.8125 12.625ZM17.4492 24.5195C17.4766 25.2305 18.0508 25.75 18.7617 25.75H25.4609C26.1719 25.75 26.7461 25.2305 26.7734 24.5195L27.375 15.25H16.875L17.4492 24.5195Z" fill="#343A40"/>
</svg>
